<svg>
    <path
        fill="#4ade80"
        d="M112.476 1.58a1.5 1.5 0 11-3 0 1.5 1.5 0 013 0zM131.444 1.58a1.5 1.5 0 11-3 0 1.5 1.5 0 013 0zM150.412 1.58a1.5 1.5 0 11-3.001 0 1.5 1.5 0 013.001 0zM169.38 1.58a1.5 1.5 0 11-3.001 0 1.5 1.5 0 013 0zM188.348 1.58a1.5 1.5 0 11-3.001 0 1.5 1.5 0 013 0zM207.315 1.58a1.5 1.5 0 11-3 0 1.5 1.5 0 013 0zM226.283 1.58a1.5 1.5 0 11-3 0 1.5 1.5 0 013 0zM245.252 1.58a1.5 1.5 0 11-3.001 0 1.5 1.5 0 013.001 0zM264.22 1.58a1.5 1.5 0 11-3.001 0 1.5 1.5 0 013 0zM283.188 1.58a1.5 1.5 0 11-3.002 0 1.5 1.5 0 013.002 0zM302.155 1.58a1.5 1.5 0 11-3 0 1.5 1.5 0 013 0zM321.123 1.58a1.5 1.5 0 11-3.001 0 1.5 1.5 0 013.001 0zM112.476 20.804a1.5 1.5 0 11-3 0 1.5 1.5 0 013 0zM131.444 20.804a1.5 1.5 0 11-3-.001 1.5 1.5 0 013 0zM150.412 20.804a1.5 1.5 0 11-3.001-.001 1.5 1.5 0 013.001 0zM169.38 20.804a1.5 1.5 0 11-3.001-.001 1.5 1.5 0 013 0zM188.348 20.804a1.5 1.5 0 11-3.001-.001 1.5 1.5 0 013 0zM207.315 20.804a1.5 1.5 0 11-3 0 1.5 1.5 0 013 0zM226.283 20.804a1.5 1.5 0 11-3 0 1.5 1.5 0 013 0zM245.252 20.804a1.5 1.5 0 11-3.001-.001 1.5 1.5 0 013.001 0zM264.22 20.804a1.5 1.5 0 11-3.001-.001 1.5 1.5 0 013 0zM283.188 20.804a1.5 1.5 0 11-3.002-.001 1.5 1.5 0 013.002 0zM302.155 20.804a1.5 1.5 0 11-3-.001 1.5 1.5 0 013 0zM321.123 20.804a1.5 1.5 0 11-3.001-.001 1.5 1.5 0 013.001 0zM112.476 40.026a1.5 1.5 0 11-2.998.002 1.5 1.5 0 012.998-.002zM131.444 40.026a1.5 1.5 0 11-3 0 1.5 1.5 0 013 0zM150.412 40.026a1.5 1.5 0 11-3 0 1.5 1.5 0 013 0zM169.38 40.026a1.5 1.5 0 11-3 0 1.5 1.5 0 013 0zM188.348 40.026a1.5 1.5 0 11-3 0 1.5 1.5 0 013 0zM207.315 40.026a1.5 1.5 0 11-2.998.002 1.5 1.5 0 012.998-.002zM226.283 40.026a1.5 1.5 0 11-2.998.002 1.5 1.5 0 012.998-.002zM245.252 40.026a1.5 1.5 0 11-3 0 1.5 1.5 0 013 0zM264.22 40.026a1.5 1.5 0 11-3 0 1.5 1.5 0 013 0zM283.188 40.026a1.5 1.5 0 11-3 0 1.5 1.5 0 013 0zM302.155 40.026a1.5 1.5 0 11-3 0 1.5 1.5 0 013 0zM321.123 40.026a1.5 1.5 0 11-3 0 1.5 1.5 0 013 0zM112.476 59.25a1.5 1.5 0 11-2.998.001 1.5 1.5 0 012.998-.001zM131.444 59.25a1.5 1.5 0 11-3 0 1.5 1.5 0 013 0zM150.412 59.25a1.5 1.5 0 11-3 0 1.5 1.5 0 013 0zM169.38 59.25a1.5 1.5 0 11-3 0 1.5 1.5 0 013 0zM188.348 59.25a1.5 1.5 0 11-3 0 1.5 1.5 0 013 0zM207.315 59.25a1.5 1.5 0 11-2.998.001 1.5 1.5 0 012.998-.001zM226.283 59.25a1.5 1.5 0 11-2.998.001 1.5 1.5 0 012.998-.001zM245.252 59.25a1.5 1.5 0 11-3 0 1.5 1.5 0 013 0zM264.22 59.25a1.5 1.5 0 11-3 0 1.5 1.5 0 013 0zM283.188 59.25a1.5 1.5 0 11-3 0 1.5 1.5 0 013 0zM302.155 59.25a1.5 1.5 0 11-3 0 1.5 1.5 0 013 0zM321.123 59.25a1.5 1.5 0 11-3 0 1.5 1.5 0 013 0zM112.476 78.473a1.5 1.5 0 11-2.998.001 1.5 1.5 0 012.998-.001zM131.444 78.473a1.5 1.5 0 11-3 0 1.5 1.5 0 013 0zM150.412 78.473a1.5 1.5 0 11-3 0 1.5 1.5 0 013 0zM169.38 78.473a1.5 1.5 0 11-3 0 1.5 1.5 0 013 0zM188.348 78.473a1.5 1.5 0 11-3 0 1.5 1.5 0 013 0zM207.315 78.473a1.5 1.5 0 11-2.998.001 1.5 1.5 0 012.998-.001zM226.283 78.473a1.5 1.5 0 11-2.998.001 1.5 1.5 0 012.998-.001zM245.252 78.473a1.5 1.5 0 11-3 0 1.5 1.5 0 013 0zM264.22 78.473a1.5 1.5 0 11-3 0 1.5 1.5 0 013 0zM283.188 78.473a1.5 1.5 0 11-3 0 1.5 1.5 0 013 0zM302.155 78.473a1.5 1.5 0 11-3 0 1.5 1.5 0 013 0zM321.123 78.473a1.5 1.5 0 11-3 0 1.5 1.5 0 013 0zM112.476 97.696a1.5 1.5 0 11-2.998.001 1.5 1.5 0 012.998-.001zM131.444 97.696a1.5 1.5 0 11-3 0 1.5 1.5 0 013 0zM150.412 97.696a1.5 1.5 0 11-3 0 1.5 1.5 0 013 0zM169.38 97.696a1.5 1.5 0 11-3 0 1.5 1.5 0 013 0zM188.348 97.696a1.5 1.5 0 11-3 0 1.5 1.5 0 013 0zM207.315 97.696a1.5 1.5 0 11-2.998.001 1.5 1.5 0 012.998-.001zM226.283 97.696a1.5 1.5 0 11-2.998.001 1.5 1.5 0 012.998-.001zM245.252 97.696a1.5 1.5 0 11-3 0 1.5 1.5 0 013 0zM264.22 97.696a1.5 1.5 0 11-3 0 1.5 1.5 0 013 0zM283.188 97.696a1.5 1.5 0 11-3 0 1.5 1.5 0 013 0zM302.155 97.696a1.5 1.5 0 11-3 0 1.5 1.5 0 013 0zM321.123 97.696a1.5 1.5 0 11-3 0 1.5 1.5 0 013 0zM112.476 116.92a1.5 1.5 0 11-3 0 1.5 1.5 0 013 0zM131.444 116.92a1.5 1.5 0 11-3-.002 1.5 1.5 0 013 .001zM150.412 116.92a1.5 1.5 0 11-3.001-.002 1.5 1.5 0 013.001.001zM169.38 116.92a1.5 1.5 0 11-3.001-.002 1.5 1.5 0 013 .001zM188.348 116.92a1.5 1.5 0 11-3.001-.002 1.5 1.5 0 013 .001zM207.315 116.92a1.5 1.5 0 11-3 0 1.5 1.5 0 013 0zM226.283 116.92a1.5 1.5 0 11-3 0 1.5 1.5 0 013 0zM245.252 116.92a1.5 1.5 0 11-3.001-.002 1.5 1.5 0 013.001.001zM264.22 116.92a1.5 1.5 0 11-3.001-.002 1.5 1.5 0 013 .001zM283.188 116.92a1.5 1.5 0 11-3.002-.002 1.5 1.5 0 013.002.001zM302.155 116.92a1.5 1.5 0 11-3-.002 1.5 1.5 0 013 .001zM321.123 116.92a1.5 1.5 0 11-3.001-.002 1.5 1.5 0 013.001.001zM112.476 136.142a1.5 1.5 0 11-3 0 1.5 1.5 0 013 0zM131.444 136.142a1.5 1.5 0 11-3 0 1.5 1.5 0 013 0zM150.412 136.142a1.5 1.5 0 11-3.001 0 1.5 1.5 0 013.001 0zM169.38 136.142a1.5 1.5 0 11-3.001 0 1.5 1.5 0 013 0zM188.348 136.142a1.5 1.5 0 11-3.001 0 1.5 1.5 0 013 0zM207.315 136.142a1.5 1.5 0 11-3 0 1.5 1.5 0 013 0zM226.283 136.142a1.5 1.5 0 11-3 0 1.5 1.5 0 013 0zM245.252 136.142a1.5 1.5 0 11-3.001 0 1.5 1.5 0 013.001 0zM264.22 136.142a1.5 1.5 0 11-3.001 0 1.5 1.5 0 013 0zM283.188 136.142a1.5 1.5 0 11-3.002 0 1.5 1.5 0 013.002 0zM302.155 136.142a1.5 1.5 0 11-3 0 1.5 1.5 0 013 0zM321.123 136.142a1.5 1.5 0 11-3.001 0 1.5 1.5 0 013.001 0zM112.476 155.365a1.5 1.5 0 11-2.998.001 1.5 1.5 0 012.998-.001zM131.444 155.365a1.5 1.5 0 11-3 0 1.5 1.5 0 013 0zM150.412 155.365a1.5 1.5 0 11-3 0 1.5 1.5 0 013 0zM169.38 155.365a1.5 1.5 0 11-3 0 1.5 1.5 0 013 0zM188.348 155.365a1.5 1.5 0 11-3 0 1.5 1.5 0 013 0zM207.315 155.365a1.5 1.5 0 11-2.998.001 1.5 1.5 0 012.998-.001zM226.283 155.365a1.5 1.5 0 11-2.998.001 1.5 1.5 0 012.998-.001zM245.252 155.365a1.5 1.5 0 11-3 0 1.5 1.5 0 013 0zM264.22 155.365a1.5 1.5 0 11-3 0 1.5 1.5 0 013 0zM283.188 155.365a1.5 1.5 0 11-3 0 1.5 1.5 0 013 0zM302.155 155.365a1.5 1.5 0 11-3 0 1.5 1.5 0 013 0zM321.123 155.365a1.5 1.5 0 11-3 0 1.5 1.5 0 013 0zM112.476 174.588a1.5 1.5 0 11-2.998.002 1.5 1.5 0 012.998-.002zM131.444 174.588a1.5 1.5 0 11-3 0 1.5 1.5 0 013 0zM150.412 174.588a1.5 1.5 0 11-3 0 1.5 1.5 0 013 0zM169.38 174.588a1.5 1.5 0 11-3 0 1.5 1.5 0 013 0zM188.348 174.588a1.5 1.5 0 11-3 0 1.5 1.5 0 013 0zM207.315 174.588a1.5 1.5 0 11-2.998.002 1.5 1.5 0 012.998-.002zM226.283 174.588a1.5 1.5 0 11-2.998.002 1.5 1.5 0 012.998-.002zM245.252 174.588a1.5 1.5 0 11-3 0 1.5 1.5 0 013 0zM264.22 174.588a1.5 1.5 0 11-3 0 1.5 1.5 0 013 0zM283.188 174.588a1.5 1.5 0 11-3 0 1.5 1.5 0 013 0zM302.155 174.588a1.5 1.5 0 11-3 0 1.5 1.5 0 013 0zM321.123 174.588a1.5 1.5 0 11-3 0 1.5 1.5 0 013 0zM112.476 193.811a1.5 1.5 0 11-2.998.002 1.5 1.5 0 012.998-.002zM131.444 193.811a1.5 1.5 0 11-3 0 1.5 1.5 0 013 0zM150.412 193.811a1.5 1.5 0 11-3 0 1.5 1.5 0 013 0zM169.38 193.811a1.5 1.5 0 11-3 0 1.5 1.5 0 013 0zM188.348 193.811a1.5 1.5 0 11-3 0 1.5 1.5 0 013 0zM207.315 193.811a1.5 1.5 0 11-2.998.002 1.5 1.5 0 012.998-.002zM226.283 193.811a1.5 1.5 0 11-2.998.002 1.5 1.5 0 012.998-.002zM245.252 193.811a1.5 1.5 0 11-3 0 1.5 1.5 0 013 0zM264.22 193.811a1.5 1.5 0 11-3 0 1.5 1.5 0 013 0zM283.188 193.811a1.5 1.5 0 11-3 0 1.5 1.5 0 013 0zM302.155 193.811a1.5 1.5 0 11-3 0 1.5 1.5 0 013 0zM321.123 193.811a1.5 1.5 0 11-3 0 1.5 1.5 0 013 0z"
    >
    </path>
</svg>